<?xml version="1.0" encoding="UTF-8"?>
<svg width="24px" height="21px" viewBox="0 0 24 21" version="1.1" xmlns="http://www.w3.org/2000/svg" xmlns:xlink="http://www.w3.org/1999/xlink">
    <!-- Generator: Sketch 46.1 (44463) - http://www.bohemiancoding.com/sketch -->
    <title>Camera</title>
    <desc>Created with Sketch.</desc>
    <defs></defs>
    <g id="Page-1" stroke="none" stroke-width="1" fill="none" fill-rule="evenodd">
        <g id="Your-Profile-Multiple-View" transform="translate(-148.000000, -535.000000)" stroke="#262626">
            <g id="Tab-Bar" transform="translate(0.000000, 523.000000)">
                <g id="Camera" transform="translate(148.000000, 12.000000)">
                    <path d="M9.83351561,0.517518391 L9.83351561,-0.482481609 L8.83074284,-0.482481609 L8.83074284,0.517518391 C9.36081307,0.517518391 9.80720796,0.517518391 10.1949155,0.517518391 L9.83351561,0.517518391 Z M14.1759831,0.517518391 C14.4722293,0.517518391 14.803642,0.517518391 15.1831522,0.517518391 L15.1831522,-0.482481609 L14.1759829,-0.482481609 L14.1759829,0.517518391 Z M10.1949155,0.517518391 C11.9520029,0.517518391 12.5037128,0.517518391 14.1759831,0.517518391 C14.5983494,0.517518391 15.2241976,0.782793179 15.5144585,1.08553155 L16.9895777,2.62406196 C17.4658011,3.12075682 18.3536707,3.5 19.039826,3.5 L19.9933492,3.5 C21.9291844,3.5 23.5,5.06702685 23.5,6.9947834 L23.5,17.0052166 C23.5,18.936237 21.9386604,20.5 20.009947,20.5 L3.99005301,20.5 C2.06384437,20.5 0.5,18.933438 0.5,17.0052166 L0.5,6.9947834 C0.5,5.0650272 2.0655237,3.50000004 3.99540283,3.50000007 L4.96671552,3.50000009 C5.65611332,3.5000001 6.53940517,3.12399043 7.01937571,2.62444219 L8.4976099,1.08591173 C8.78854394,0.78311067 9.41051096,0.517518391 9.83351561,0.517518391 L10.1949155,0.517518391 Z M12,17 C8.96243388,17 6.5,14.5375661 6.5,11.5 C6.5,8.46243388 8.96243388,6 12,6 C15.0375661,6 17.5,8.46243388 17.5,11.5 C17.5,14.5375661 15.0375661,17 12,17 Z"></path>
                </g>
            </g>
        </g>
    </g>
</svg>