<?xml version="1.0" encoding="UTF-8"?>
<svg width="21px" height="21px" viewBox="0 0 21 21" version="1.1" xmlns="http://www.w3.org/2000/svg" xmlns:xlink="http://www.w3.org/1999/xlink">
    <!-- Generator: Sketch 46.1 (44463) - http://www.bohemiancoding.com/sketch -->
    <title>Comment</title>
    <desc>Created with Sketch.</desc>
    <defs></defs>
    <g id="Page-1" stroke="none" stroke-width="1" fill="none" fill-rule="evenodd">
        <g id="Unfollowed-+-Suggested" transform="translate(-55.000000, -1019.000000)" stroke="#262626">
            <g id="Content" transform="translate(0.000000, 76.000000)">
                <g id="1x1-Photo" transform="translate(0.000000, 567.000000)">
                    <g id="Like/Comment/Share" transform="translate(12.000000, 375.000000)">
                        <path d="M62.7786149,20.5567917 C62.7085026,20.3897966 62.6395218,20.2217805 62.5724878,20.0541578 C62.4902725,19.8485732 62.4129895,19.6484677 62.3414833,19.4552659 C61.8423121,18.1065605 61.6605783,17.3066373 61.9518977,16.847181 C62.9579433,15.2604894 63.5,13.4209228 63.5,11.5 C63.5,5.9771525 59.0228475,1.5 53.5,1.5 C47.9771525,1.5 43.5,5.9771525 43.5,11.5 C43.5,17.0228475 47.9771525,21.5 53.5,21.5 C55.551021,21.5 57.5082931,20.8817619 59.1614097,19.7442737 C59.6026572,19.4406571 60.3710109,19.6245858 61.7432004,20.1416598 C61.9199767,20.2082734 62.1027714,20.279733 62.290431,20.3553666 C62.4530165,20.4208946 62.6161965,20.488293 62.7786149,20.5567917 Z" id="Comment"></path>
                    </g>
                </g>
            </g>
        </g>
    </g>
</svg>