<?xml version="1.0" encoding="UTF-8"?>
<svg width="16px" height="16px" viewBox="0 0 16 16" version="1.1" xmlns="http://www.w3.org/2000/svg" xmlns:xlink="http://www.w3.org/1999/xlink">
    <!-- Generator: Sketch 46.1 (44463) - http://www.bohemiancoding.com/sketch -->
    <title>Combined Shape</title>
    <desc>Created with Sketch.</desc>
    <defs></defs>
    <g id="Page-1" stroke="none" stroke-width="1" fill="none" fill-rule="evenodd">
        <g id="Your-Profile-Multiple-View" transform="translate(-33.000000, -234.000000)" fill="#3897F0">
            <g id="Content" transform="translate(0.000000, 76.000000)">
                <g id="View-options" transform="translate(33.000000, 155.000000)">
                    <path d="M13.4193548,9.70967742 L16,9.70967742 L16,12.2903226 L13.4193548,12.2903226 L13.4193548,9.70967742 Z M6.70967742,9.70967742 L9.29032258,9.70967742 L9.29032258,12.2903226 L6.70967742,12.2903226 L6.70967742,9.70967742 Z M0,9.70967742 L2.58064516,9.70967742 L2.58064516,12.2903226 L0,12.2903226 L0,9.70967742 Z M13.4193548,3 L16,3 L16,5.58064516 L13.4193548,5.58064516 L13.4193548,3 Z M6.70967742,3 L9.29032258,3 L9.29032258,5.58064516 L6.70967742,5.58064516 L6.70967742,3 Z M0,3 L2.58064516,3 L2.58064516,5.58064516 L0,5.58064516 L0,3 Z M13.4193548,16.4193548 L16,16.4193548 L16,19 L13.4193548,19 L13.4193548,16.4193548 Z M6.70967742,16.4193548 L9.29032258,16.4193548 L9.29032258,19 L6.70967742,19 L6.70967742,16.4193548 Z M0,16.4193548 L2.58064516,16.4193548 L2.58064516,19 L0,19 L0,16.4193548 Z" id="Combined-Shape"></path>
                </g>
            </g>
        </g>
    </g>
</svg>