<?xml version="1.0" encoding="UTF-8"?>
<svg width="23px" height="20px" viewBox="0 0 23 20" version="1.1" xmlns="http://www.w3.org/2000/svg" xmlns:xlink="http://www.w3.org/1999/xlink">
    <!-- Generator: Sketch 46.1 (44463) - http://www.bohemiancoding.com/sketch -->
    <title>Heart</title>
    <desc>Created with Sketch.</desc>
    <defs></defs>
    <g id="Page-1" stroke="none" stroke-width="1" fill="262626" fill-rule="evenodd">
        <g id="Your-Profile-Multiple-View" transform="translate(-213.000000, -535.000000)" stroke="#262626">
            <g id="Tab-Bar" transform="translate(0.000000, 523.000000)">
                <g id="Heart" transform="translate(214.000000, 13.000000)">
                    <path d="M5.03580138,13.8009534 C5.03580138,13.8009534 10.2418019,18 10.5718572,18 C10.8342164,18 16.1371102,13.6197245 16.1371102,13.6197245 C16.1371102,13.6197245 19.851217,10.7073372 20.6781427,8.04987508 C21.9038223,4.11095152 19.5072375,-1.73354048e-18 15.5536057,0.0217139762 C11.5999739,0.0434279524 11.3359063,2.72059869 10.5902767,2.72059873 C9.84464716,2.72059878 8.94113193,-1.67609237e-10 5.49875355,-1.73354048e-18 C2.05637517,1.67609234e-10 -1.32242575,4.14855081 0.520867192,8.96565647 C1.1752906,10.6758712 5.03580138,13.8009534 5.03580138,13.8009534 Z"></path>
                </g>
            </g>
        </g>
    </g>
</svg>