<?xml version="1.0" encoding="UTF-8"?>
<svg width="22px" height="21px" viewBox="0 0 22 21" version="1.1" xmlns="http://www.w3.org/2000/svg" xmlns:xlink="http://www.w3.org/1999/xlink">
    <!-- Generator: Sketch 46.1 (44463) - http://www.bohemiancoding.com/sketch -->
    <title>Home</title>
    <desc>Created with Sketch.</desc>
    <defs></defs>
    <g id="Page-1" stroke="none" stroke-width="1" fill="none" fill-rule="evenodd">
        <g id="Your-Profile-Multiple-View" transform="translate(-21.000000, -536.000000)" stroke="#262626">
            <g id="Tab-Bar" transform="translate(0.000000, 523.000000)">
                <g id="Home" transform="translate(21.000000, 12.000000)">
                    <path d="M0.5,12.8132154 L0.5,20.7135754 C0.5,20.9923842 0.723572776,21.2183201 0.995409313,21.2183201 L7.98532548,21.2183199 C8.25133533,21.2183199 8.48073483,20.9895074 8.48073483,20.7171605 L8.48166094,15.4303999 C8.48092994,15.4179352 8.48092994,15.4179352 8.47960031,15.3833514 C8.46582388,14.9613572 8.51499292,14.4493089 8.68555651,13.9420522 C9.03608545,12.899578 9.80742813,12.2516134 10.9782689,12.3058988 C12.2198578,12.2518855 12.9978323,12.9018648 13.3330416,13.9489638 C13.4902148,14.4399283 13.5313473,14.9392907 13.5108161,15.3666545 C13.5075694,15.4242716 13.5075694,15.4242716 13.5078354,15.3999818 L13.5078354,20.7171605 C13.5078354,20.9908801 13.7332977,21.2183199 14.0045116,21.2183199 L21.0033238,21.2183201 C21.2768994,21.2183201 21.5,20.993366 21.5,20.7135754 L21.5,12.8132154 C21.5,12.3902724 21.2353007,11.7421554 20.9379058,11.4384225 L11.3475717,1.64369911 C11.1554083,1.44744035 10.8448625,1.44716378 10.6524283,1.64369911 L1.06209423,11.4384225 C0.765375143,11.7414652 0.5,12.3901312 0.5,12.8132154 Z"></path>
                </g>
            </g>
        </g>
    </g>
</svg>