<?xml version="1.0" encoding="UTF-8"?>
<svg width="16px" height="19px" viewBox="0 0 16 19" version="1.1" xmlns="http://www.w3.org/2000/svg" xmlns:xlink="http://www.w3.org/1999/xlink">
    <!-- Generator: Sketch 46.1 (44463) - http://www.bohemiancoding.com/sketch -->
    <title>Combined Shape</title>
    <desc>Created with Sketch.</desc>
    <defs>
        <path d="M167,20 C165.839165,20 159,13.1330045 159,8.81622349 C159,4.49944245 162.581722,1 167,1 C171.418278,1 175,4.49944245 175,8.81622349 C175,13.1330045 168.160835,20 167,20 Z M167,10.7702794 C168.104569,10.7702794 169,9.89541874 169,8.81622349 C169,7.73702823 168.104569,6.86216761 167,6.86216761 C165.895431,6.86216761 165,7.73702823 165,8.81622349 C165,9.89541874 165.895431,10.7702794 167,10.7702794 Z" id="path-1"></path>
    </defs>
    <g id="Page-1" stroke="none" stroke-width="1" fill="none" fill-rule="evenodd">
        <g id="Your-Profile-Multiple-View" transform="translate(-192.000000, -232.000000)">
            <g id="Content" transform="translate(0.000000, 76.000000)">
                <g id="View-options" transform="translate(33.000000, 155.000000)">
                    <g id="Combined-Shape">
                        <use fill="#FFFFFF" fill-rule="evenodd" xlink:href="#path-1"></use>
                        <path stroke="#979797" stroke-width="1" d="M167,19.5 C167.3871,19.5 169.385218,17.7333444 171.049073,15.7093849 C173.164885,13.1356523 174.5,10.602702 174.5,8.81622349 C174.5,4.77821898 171.144703,1.5 167,1.5 C162.855297,1.5 159.5,4.77821898 159.5,8.81622349 C159.5,10.602702 160.835115,13.1356523 162.950927,15.7093849 C164.614782,17.7333444 166.6129,19.5 167,19.5 Z M167,11.2702794 C165.621855,11.2702794 164.5,10.1741953 164.5,8.81622349 C164.5,7.4582517 165.621855,6.36216761 167,6.36216761 C168.378145,6.36216761 169.5,7.4582517 169.5,8.81622349 C169.5,10.1741953 168.378145,11.2702794 167,11.2702794 Z"></path>
                    </g>
                </g>
            </g>
        </g>
    </g>
</svg>